<svg version="1.1" xmlns="http://www.w3.org/2000/svg" viewBox="0 0 100 100">
	<path d="M19,56.5c-3.1,0-5.6-2.5-5.6-5.6c0-3.1,2.5-5.6,5.6-5.6s5.6,2.5,5.6,5.6C24.6,54,22.1,56.5,19,56.5z
		 M28.1,36c-3.9,0-7-3.2-7-7s3.2-7,7-7s7,3.2,7,7S32,36,28.1,36z M28.1,78.4c-3.1,0-5.6-2.6-5.6-5.6c0-3.1,2.6-5.6,5.6-5.6
		c3.1,0,5.6,2.5,5.6,5.6C33.7,75.9,31.2,78.4,28.1,78.4z M50,28.3c-4.7,0-8.5-3.8-8.5-8.5s3.8-8.5,8.5-8.5s8.5,3.8,8.5,8.5
		S54.7,28.3,50,28.3z M50,87.5c-3.1,0-5.6-2.5-5.6-5.6s2.5-5.6,5.6-5.6c3.1,0,5.6,2.5,5.6,5.6S53.1,87.5,50,87.5z M71.9,38.8
		c-5.5,0-9.9-4.4-9.9-9.9c0-5.4,4.4-9.9,9.9-9.9c5.4,0,9.9,4.4,9.9,9.9C81.8,34.4,77.3,38.8,71.9,38.8z M71.9,78.4
		c-3.1,0-5.6-2.6-5.6-5.6c0-3.1,2.5-5.6,5.6-5.6c3.1,0,5.6,2.5,5.6,5.6C77.6,75.9,75,78.4,71.9,78.4z M81,56.5
		c-3.1,0-5.6-2.5-5.6-5.6c0-3.1,2.5-5.6,5.6-5.6s5.6,2.5,5.6,5.6C86.6,54,84.1,56.5,81,56.5z"/>
</svg>
